<?xml version="1.0"?>
<svg xmlns="http://www.w3.org/2000/svg" xmlns:xlink="http://www.w3.org/1999/xlink" version="1.1" id="Layer_1" x="0px" y="0px" width="100%" viewBox="0 0 463 113" enable-background="new 0 0 463 113" xml:space="preserve" style="background-color:transparent;">
<path fill="#FDFDFD" opacity="1.000000" stroke="none" d=" M304.000000,114.000000   C202.666672,114.000000 101.833359,114.000000 1.000027,114.000000   C1.000018,76.333351 1.000018,38.666698 1.000009,1.000037   C155.333298,1.000025 309.666595,1.000025 463.999939,1.000012   C463.999939,38.666626 463.999939,76.333252 463.999969,113.999939   C410.833344,114.000000 357.666656,114.000000 304.000000,114.000000  M15.371966,5.696036   C6.170016,10.912886 2.504859,19.091578 2.535078,29.357784   C2.589486,47.842136 2.512221,66.326859 2.561059,84.811241   C2.608356,102.712769 12.419995,112.451996 30.445816,112.496292   C48.597153,112.540886 66.748871,112.548843 84.900108,112.485512   C102.579269,112.423820 112.457443,102.623161 112.532860,85.024704   C112.611366,66.707054 112.604630,48.388607 112.534805,30.070890   C112.467567,12.429731 102.626877,2.583674 84.995705,2.516555   C66.677986,2.446822 48.356689,2.317465 30.043959,2.627534   C25.350031,2.707011 20.682497,4.345218 15.371966,5.696036  M135.001831,56.737778   C135.293365,51.678940 137.596878,47.640259 142.081390,45.464970   C148.999542,42.109203 155.566666,43.509872 161.298721,48.537025   C163.671844,46.319000 165.693069,44.429882 167.722565,42.533028   C160.956848,36.095577 154.103165,33.891460 144.740814,35.040211   C133.909378,36.369217 125.939873,44.328171 124.497078,55.257164   C123.112061,65.748466 128.956467,75.664444 139.023956,79.369698   C147.815384,82.605316 156.363525,81.463600 164.449051,76.944656   C165.548538,76.330170 166.822769,74.863312 166.875107,73.738037   C167.127319,68.314766 166.988602,62.873314 166.988602,57.449249   C163.517120,57.449249 160.622894,57.449249 157.427689,57.449249   C157.427689,60.706417 157.149811,63.712017 157.499176,66.642845   C157.920593,70.178314 156.070831,71.342896 153.153625,71.917336   C142.976959,73.921295 135.589264,68.108452 135.001831,56.737778  M274.260559,63.499466   C274.260559,53.402164 274.260559,43.304863 274.260559,33.202766   C270.666779,33.202766 267.609161,33.202766 264.248352,33.202766   C264.248352,38.453487 264.248352,43.397385 264.248352,48.479908   C254.088303,43.875210 245.689529,45.075859 240.559784,51.677734   C235.507767,58.179569 235.356323,68.813675 240.910904,74.764503   C243.259308,77.280434 246.793289,79.734932 250.038223,80.121735   C254.802826,80.689690 259.791534,79.377693 265.057007,78.827782   C265.810333,80.824486 266.249756,80.932320 274.260559,79.804703   C274.260559,74.748817 274.260559,69.623795 274.260559,63.499466  M209.837631,80.230270   C209.837631,68.910156 209.837631,57.590038 209.837631,46.201477   C207.094681,46.201477 204.017746,46.201477 200.659317,46.201477   C200.659317,50.947395 200.731934,55.432369 200.629395,59.913330   C200.576309,62.232880 200.511490,64.624428 199.923904,66.843628   C198.872238,70.815506 195.850800,72.281738 191.926270,72.050293   C188.115326,71.825531 186.128693,69.521324 186.026428,65.934319   C185.838379,59.339058 185.972763,52.734608 185.972763,46.263454   C182.048264,46.263454 178.961090,46.263454 175.878677,46.263454   C175.878677,53.579491 175.613083,60.580791 175.942627,67.553970   C176.405182,77.341690 184.707397,83.076225 194.171997,80.336517   C196.474243,79.670090 198.589828,78.358818 199.480194,77.948395   C201.521301,79.036629 202.690979,80.002586 204.003754,80.272469   C205.601517,80.600922 207.319748,80.343353 209.837631,80.230270  M383.099670,78.042641   C385.496063,83.357986 389.472961,78.903725 392.299896,80.207466   C392.299896,72.097206 392.520966,64.605202 392.219025,57.134338   C392.030396,52.466743 389.381897,48.826328 385.007721,47.150158   C376.809326,44.008545 368.921753,45.070045 361.224762,49.556881   C362.466431,52.009922 363.505615,54.062962 364.530365,56.087513   C376.274811,51.605927 381.757660,52.847198 381.839081,59.627682   C377.035400,60.099957 372.182587,60.219917 367.487152,61.141560   C363.006836,62.020969 360.202942,65.059532 359.983551,69.887474   C359.757721,74.857880 362.270569,78.190277 366.765320,79.835060   C372.449219,81.915016 377.885742,81.287979 383.099670,78.042641  M285.100616,74.344398   C293.463257,82.748299 306.379211,83.226112 314.770782,75.252937   C313.112122,73.430382 311.449402,71.603386 309.817932,69.810745   C301.086670,74.911049 293.883209,73.469826 291.757233,65.877815   C300.272400,65.877815 308.661896,65.877815 317.006226,65.877815   C317.451324,55.602509 313.925812,49.515308 306.220825,46.718025   C298.376099,43.870014 289.869812,45.998936 284.943329,52.043308   C279.848846,58.293793 279.734192,66.306610 285.100616,74.344398  M346.257294,80.170021   C349.519745,80.170021 352.782196,80.170021 357.060089,80.170021   C352.353119,73.891251 348.150146,68.284821 344.002350,62.751938   C348.246490,57.135067 352.206604,51.894115 356.154327,46.669559   C346.565857,42.932640 342.818512,49.687088 338.533264,56.309612   C334.659698,48.933498 330.279663,43.147820 320.703552,46.661358   C324.718170,52.067425 328.717987,57.453594 332.821625,62.979568   C328.590515,68.641403 324.492340,74.125404 319.960968,80.189018   C324.085388,80.189018 328.027802,81.376808 330.146820,79.917305   C333.528320,77.588226 335.697327,73.498802 338.462280,70.049858   C340.866608,73.360580 343.194733,76.566353 346.257294,80.170021  M399.510284,60.144169   C398.332642,69.877045 403.105896,77.383041 412.130524,79.989578   C421.277039,82.631317 429.699371,79.537994 433.394592,71.975380   C431.100647,70.716438 428.793915,69.450500 426.519897,68.202499   C420.735382,73.392586 415.632874,73.921890 411.689453,69.809319   C408.664520,66.654625 408.638306,59.614777 411.639832,56.482155   C415.499390,52.454029 420.690338,52.983253 426.568420,58.100597   C428.794312,56.867428 431.068542,55.607487 433.319763,54.360306   C430.474365,48.056248 424.875671,44.994629 417.443634,45.476658   C407.888031,46.096416 402.312164,50.446556 399.510284,60.144169  M450.892914,68.032028   C450.892914,63.590847 450.892914,59.149670 450.892914,54.521816   C453.946472,54.355858 456.511444,54.216454 459.023712,54.079914   C459.023712,51.451702 459.023712,49.222061 459.023712,46.495987   C456.164795,46.495987 453.619110,46.495987 451.047028,46.495987   C450.905182,43.420059 450.786469,40.846199 450.673584,38.398232   C447.206421,38.398232 444.258728,38.398232 441.066589,38.398232   C440.934601,41.178432 440.811707,43.767693 440.681793,46.504284   C438.907349,46.693649 437.328583,46.862137 435.733704,47.032341   C435.733704,49.523163 435.733704,51.766727 435.733704,54.012257   C437.585815,54.259060 439.156464,54.468361 440.863678,54.695858   C440.863678,58.989826 440.837860,62.972404 440.868500,66.954552   C440.963654,79.330429 450.892487,84.850830 461.718201,78.480591   C460.911560,76.368149 460.100830,74.245033 459.263367,72.051788   C455.504822,72.977631 451.842590,74.247978 450.892914,68.032028  M227.426666,80.325897   C228.266083,79.650436 229.827026,78.985367 229.836929,78.297951   C229.991211,67.583794 229.944916,56.866749 229.944916,46.244080   C226.285446,46.244080 223.224274,46.244080 220.230377,46.244080   C220.230377,57.743649 220.230377,68.947151 220.230377,80.327675   C222.487503,80.327675 224.465179,80.327675 227.426666,80.325897  M222.963455,40.863842   C228.481934,40.995346 231.139832,39.163162 231.043839,35.293766   C230.959259,31.884312 227.829056,29.237251 224.097977,30.191189   C222.185638,30.680122 219.377701,32.653664 219.288101,34.099609   C219.158096,36.197639 221.121826,38.425411 222.963455,40.863842  z"/>
<path fill="#020202" opacity="1.000000" stroke="none" d=" M15.687401,5.481677   C20.682497,4.345218 25.350031,2.707011 30.043959,2.627534   C48.356689,2.317465 66.677986,2.446822 84.995705,2.516555   C102.626877,2.583674 112.467567,12.429731 112.534805,30.070890   C112.604630,48.388607 112.611366,66.707054 112.532860,85.024704   C112.457443,102.623161 102.579269,112.423820 84.900108,112.485512   C66.748871,112.548843 48.597153,112.540886 30.445816,112.496292   C12.419995,112.451996 2.608356,102.712769 2.561059,84.811241   C2.512221,66.326859 2.589486,47.842136 2.535078,29.357784   C2.504859,19.091578 6.170016,10.912886 15.687401,5.481677  M56.350845,22.073017   C53.351440,22.073299 50.350193,22.005016 47.352943,22.085493   C32.813931,22.475861 23.207018,33.524761 23.911510,45.937256   C24.382866,54.242081 23.984768,62.595367 24.005289,70.926895   C24.030806,81.287170 31.504011,90.785583 41.843880,91.851753   C52.050541,92.904182 62.446823,93.314217 72.673317,92.657478   C83.990242,91.930717 91.903481,84.832069 93.654907,74.416885   C94.691071,68.255104 93.666672,61.775013 94.085732,55.472424   C94.427536,50.331787 92.412582,48.377605 87.491554,49.003441   C83.285667,49.538326 81.476883,47.285366 81.007553,43.463127   C79.374176,30.160952 70.476875,22.134281 56.350845,22.073017  z"/>
<path fill="#080808" opacity="1.000000" stroke="none" d=" M134.981659,57.157684   C135.589264,68.108452 142.976959,73.921295 153.153625,71.917336   C156.070831,71.342896 157.920593,70.178314 157.499176,66.642845   C157.149811,63.712017 157.427689,60.706417 157.427689,57.449249   C160.622894,57.449249 163.517120,57.449249 166.988602,57.449249   C166.988602,62.873314 167.127319,68.314766 166.875107,73.738037   C166.822769,74.863312 165.548538,76.330170 164.449051,76.944656   C156.363525,81.463600 147.815384,82.605316 139.023956,79.369698   C128.956467,75.664444 123.112061,65.748466 124.497078,55.257164   C125.939873,44.328171 133.909378,36.369217 144.740814,35.040211   C154.103165,33.891460 160.956848,36.095577 167.722565,42.533028   C165.693069,44.429882 163.671844,46.319000 161.298721,48.537025   C155.566666,43.509872 148.999542,42.109203 142.081390,45.464970   C137.596878,47.640259 135.293365,51.678940 134.981659,57.157684  z"/>
<path fill="#060606" opacity="1.000000" stroke="none" d=" M274.260559,63.999123   C274.260559,69.623795 274.260559,74.748817 274.260559,79.804703   C266.249756,80.932320 265.810333,80.824486 265.057007,78.827782   C259.791534,79.377693 254.802826,80.689690 250.038223,80.121735   C246.793289,79.734932 243.259308,77.280434 240.910904,74.764503   C235.356323,68.813675 235.507767,58.179569 240.559784,51.677734   C245.689529,45.075859 254.088303,43.875210 264.248352,48.479908   C264.248352,43.397385 264.248352,38.453487 264.248352,33.202766   C267.609161,33.202766 270.666779,33.202766 274.260559,33.202766   C274.260559,43.304863 274.260559,53.402164 274.260559,63.999123  M249.996140,70.521446   C253.998291,73.384033 257.985718,73.421532 261.744080,70.183022   C264.506836,67.802422 265.289795,61.741302 263.341705,58.191116   C261.229584,54.342014 257.757141,53.219879 253.640945,54.015018   C247.028427,55.292377 244.999832,63.051308 249.996140,70.521446  z"/>
<path fill="#090909" opacity="1.000000" stroke="none" d=" M209.411743,80.284775   C207.319748,80.343353 205.601517,80.600922 204.003754,80.272469   C202.690979,80.002586 201.521301,79.036629 199.480194,77.948395   C198.589828,78.358818 196.474243,79.670090 194.171997,80.336517   C184.707397,83.076225 176.405182,77.341690 175.942627,67.553970   C175.613083,60.580791 175.878677,53.579491 175.878677,46.263454   C178.961090,46.263454 182.048264,46.263454 185.972763,46.263454   C185.972763,52.734608 185.838379,59.339058 186.026428,65.934319   C186.128693,69.521324 188.115326,71.825531 191.926270,72.050293   C195.850800,72.281738 198.872238,70.815506 199.923904,66.843628   C200.511490,64.624428 200.576309,62.232880 200.629395,59.913330   C200.731934,55.432369 200.659317,50.947395 200.659317,46.201477   C204.017746,46.201477 207.094681,46.201477 209.837631,46.201477   C209.837631,57.590038 209.837631,68.910156 209.411743,80.284775  z"/>
<path fill="#090909" opacity="1.000000" stroke="none" d=" M382.920197,77.719803   C377.885742,81.287979 372.449219,81.915016 366.765320,79.835060   C362.270569,78.190277 359.757721,74.857880 359.983551,69.887474   C360.202942,65.059532 363.006836,62.020969 367.487152,61.141560   C372.182587,60.219917 377.035400,60.099957 381.839081,59.627682   C381.757660,52.847198 376.274811,51.605927 364.530365,56.087513   C363.505615,54.062962 362.466431,52.009922 361.224762,49.556881   C368.921753,45.070045 376.809326,44.008545 385.007721,47.150158   C389.381897,48.826328 392.030396,52.466743 392.219025,57.134338   C392.520966,64.605202 392.299896,72.097206 392.299896,80.207466   C389.472961,78.903725 385.496063,83.357986 382.920197,77.719803  M382.712982,68.954155   C382.214722,67.975182 381.769897,66.190559 381.209137,66.153351   C378.427307,65.968750 375.542542,65.916542 372.846558,66.510178   C371.660034,66.771446 369.953705,68.768219 370.061981,69.813538   C370.209015,71.233589 371.641754,73.319206 372.923523,73.674400   C376.886536,74.772598 380.492859,73.899513 382.712982,68.954155  z"/>
<path fill="#070707" opacity="1.000000" stroke="none" d=" M284.866547,74.055725   C279.734192,66.306610 279.848846,58.293793 284.943329,52.043308   C289.869812,45.998936 298.376099,43.870014 306.220825,46.718025   C313.925812,49.515308 317.451324,55.602509 317.006226,65.877815   C308.661896,65.877815 300.272400,65.877815 291.757233,65.877815   C293.883209,73.469826 301.086670,74.911049 309.817932,69.810745   C311.449402,71.603386 313.112122,73.430382 314.770782,75.252937   C306.379211,83.226112 293.463257,82.748299 284.866547,74.055725  M306.510895,56.658504   C300.454681,50.656898 293.692383,52.035046 291.324066,60.091270   C296.045166,60.091270 300.674194,60.190201 305.288147,59.971355   C305.893677,59.942638 306.421967,58.286331 306.510895,56.658504  z"/>
<path fill="#060606" opacity="1.000000" stroke="none" d=" M345.890076,79.971069   C343.194733,76.566353 340.866608,73.360580 338.462280,70.049858   C335.697327,73.498802 333.528320,77.588226 330.146820,79.917305   C328.027802,81.376808 324.085388,80.189018 319.960968,80.189018   C324.492340,74.125404 328.590515,68.641403 332.821625,62.979568   C328.717987,57.453594 324.718170,52.067425 320.703552,46.661358   C330.279663,43.147820 334.659698,48.933498 338.533264,56.309612   C342.818512,49.687088 346.565857,42.932640 356.154327,46.669559   C352.206604,51.894115 348.246490,57.135067 344.002350,62.751938   C348.150146,68.284821 352.353119,73.891251 357.060089,80.170021   C352.782196,80.170021 349.519745,80.170021 345.890076,79.971069  z"/>
<path fill="#090909" opacity="1.000000" stroke="none" d=" M399.589050,59.744511   C402.312164,50.446556 407.888031,46.096416 417.443634,45.476658   C424.875671,44.994629 430.474365,48.056248 433.319763,54.360306   C431.068542,55.607487 428.794312,56.867428 426.568420,58.100597   C420.690338,52.983253 415.499390,52.454029 411.639832,56.482155   C408.638306,59.614777 408.664520,66.654625 411.689453,69.809319   C415.632874,73.921890 420.735382,73.392586 426.519897,68.202499   C428.793915,69.450500 431.100647,70.716438 433.394592,71.975380   C429.699371,79.537994 421.277039,82.631317 412.130524,79.989578   C403.105896,77.383041 398.332642,69.877045 399.589050,59.744511  z"/>
<path fill="#070707" opacity="1.000000" stroke="none" d=" M450.916077,68.475861   C451.842590,74.247978 455.504822,72.977631 459.263367,72.051788   C460.100830,74.245033 460.911560,76.368149 461.718201,78.480591   C450.892487,84.850830 440.963654,79.330429 440.868500,66.954552   C440.837860,62.972404 440.863678,58.989826 440.863678,54.695858   C439.156464,54.468361 437.585815,54.259060 435.733704,54.012257   C435.733704,51.766727 435.733704,49.523163 435.733704,47.032341   C437.328583,46.862137 438.907349,46.693649 440.681793,46.504284   C440.811707,43.767693 440.934601,41.178432 441.066589,38.398232   C444.258728,38.398232 447.206421,38.398232 450.673584,38.398232   C450.786469,40.846199 450.905182,43.420059 451.047028,46.495987   C453.619110,46.495987 456.164795,46.495987 459.023712,46.495987   C459.023712,49.222061 459.023712,51.451702 459.023712,54.079914   C456.511444,54.216454 453.946472,54.355858 450.892914,54.521816   C450.892914,59.149670 450.892914,63.590847 450.916077,68.475861  z"/>
<path fill="#020202" opacity="1.000000" stroke="none" d=" M226.934753,80.326782   C224.465179,80.327675 222.487503,80.327675 220.230377,80.327675   C220.230377,68.947151 220.230377,57.743649 220.230377,46.244080   C223.224274,46.244080 226.285446,46.244080 229.944916,46.244080   C229.944916,56.866749 229.991211,67.583794 229.836929,78.297951   C229.827026,78.985367 228.266083,79.650436 226.934753,80.326782  z"/>
<path fill="#0A0A0A" opacity="1.000000" stroke="none" d=" M222.578003,40.730843   C221.121826,38.425411 219.158096,36.197639 219.288101,34.099609   C219.377701,32.653664 222.185638,30.680122 224.097977,30.191189   C227.829056,29.237251 230.959259,31.884312 231.043839,35.293766   C231.139832,39.163162 228.481934,40.995346 222.578003,40.730843  z"/>
<path fill="#FDFDFD" opacity="1.000000" stroke="none" d=" M56.821869,22.073017   C70.476875,22.134281 79.374176,30.160952 81.007553,43.463127   C81.476883,47.285366 83.285667,49.538326 87.491554,49.003441   C92.412582,48.377605 94.427536,50.331787 94.085732,55.472424   C93.666672,61.775013 94.691071,68.255104 93.654907,74.416885   C91.903481,84.832069 83.990242,91.930717 72.673317,92.657478   C62.446823,93.314217 52.050541,92.904182 41.843880,91.851753   C31.504011,90.785583 24.030806,81.287170 24.005289,70.926895   C23.984768,62.595367 24.382866,54.242081 23.911510,45.937256   C23.207018,33.524761 32.813931,22.475861 47.352943,22.085493   C50.350193,22.005016 53.351440,22.073299 56.821869,22.073017  M70.119774,74.104004   C73.102821,74.386375 75.804726,73.491615 75.845367,70.250534   C75.888489,66.812332 73.284950,65.864632 69.983269,65.945694   C62.685909,66.124847 55.378666,66.112518 48.080502,65.950638   C44.837555,65.878700 42.110054,66.653488 42.142551,70.176086   C42.176727,73.881233 45.278370,74.155434 48.289291,74.126030   C55.258476,74.057976 62.228786,74.104637 70.119774,74.104004  M53.452637,40.546738   C51.286270,40.554604 48.936020,40.039875 47.005859,40.719032   C45.119583,41.382751 43.661953,43.264675 42.016155,44.611835   C43.678158,46.073730 45.125137,48.195244 47.058270,48.825409   C49.317947,49.562019 52.010239,49.129223 54.499249,48.965965   C57.855057,48.745853 62.875725,50.493984 62.825222,44.810722   C62.776039,39.276794 57.781433,40.924217 53.452637,40.546738  z"/>
<path fill="#F8F8F8" opacity="1.000000" stroke="none" d=" M249.693207,70.279221   C244.999832,63.051308 247.028427,55.292377 253.640945,54.015018   C257.757141,53.219879 261.229584,54.342014 263.341705,58.191116   C265.289795,61.741302 264.506836,67.802422 261.744080,70.183022   C257.985718,73.421532 253.998291,73.384033 249.693207,70.279221  z"/>
<path fill="#F5F5F5" opacity="1.000000" stroke="none" d=" M382.613586,69.344559   C380.492859,73.899513 376.886536,74.772598 372.923523,73.674400   C371.641754,73.319206 370.209015,71.233589 370.061981,69.813538   C369.953705,68.768219 371.660034,66.771446 372.846558,66.510178   C375.542542,65.916542 378.427307,65.968750 381.209137,66.153351   C381.769897,66.190559 382.214722,67.975182 382.613586,69.344559  z"/>
<path fill="#F3F3F3" opacity="1.000000" stroke="none" d=" M306.748474,57.021179   C306.421967,58.286331 305.893677,59.942638 305.288147,59.971355   C300.674194,60.190201 296.045166,60.091270 291.324066,60.091270   C293.692383,52.035046 300.454681,50.656898 306.748474,57.021179  z"/>
<path fill="#010101" opacity="1.000000" stroke="none" d=" M69.659210,74.104385   C62.228786,74.104637 55.258476,74.057976 48.289291,74.126030   C45.278370,74.155434 42.176727,73.881233 42.142551,70.176086   C42.110054,66.653488 44.837555,65.878700 48.080502,65.950638   C55.378666,66.112518 62.685909,66.124847 69.983269,65.945694   C73.284950,65.864632 75.888489,66.812332 75.845367,70.250534   C75.804726,73.491615 73.102821,74.386375 69.659210,74.104385  z"/>
<path fill="#010101" opacity="1.000000" stroke="none" d=" M53.925705,40.546722   C57.781433,40.924217 62.776039,39.276794 62.825222,44.810722   C62.875725,50.493984 57.855057,48.745853 54.499249,48.965965   C52.010239,49.129223 49.317947,49.562019 47.058270,48.825409   C45.125137,48.195244 43.678158,46.073730 42.016159,44.611839   C43.661953,43.264675 45.119583,41.382751 47.005859,40.719032   C48.936020,40.039875 51.286270,40.554604 53.925705,40.546722  z"/>
</svg>
