<?xml version="1.0"?>
<svg xmlns="http://www.w3.org/2000/svg" xmlns:xlink="http://www.w3.org/1999/xlink" version="1.1" id="Layer_1" x="0px" y="0px" width="100%" viewBox="0 0 463 113" enable-background="new 0 0 463 113" xml:space="preserve" style="background-color:transparent;">
<path fill="#020202" opacity="1.000000" stroke="none" d=" M89.000000,1.000000   C213.936615,1.000000 338.873230,1.000000 463.904907,1.000000   C463.904907,38.583961 463.904907,76.168243 463.904907,114.000000   C339.312561,114.000000 214.624939,114.000000 89.138771,113.662361   C88.826561,112.964195 89.271049,112.373886 89.805321,112.276581   C104.760101,109.552711 112.340721,101.121040 112.505066,86.193909   C112.715462,67.084259 112.706497,47.968979 112.508049,28.859077   C112.354805,14.101827 104.947731,5.667315 90.359962,2.755733   C89.811676,2.646298 89.449112,1.606335 89.000000,1.000000  M154.781647,80.586914   C157.745499,79.553284 160.826736,78.758598 163.623520,77.384842   C165.014648,76.701546 166.748123,75.014534 166.838089,73.681122   C167.202744,68.276764 166.989563,62.833420 166.989563,57.467140   C163.483673,57.467140 160.590164,57.467140 157.425064,57.467140   C157.425064,61.082211 157.595123,64.401520 157.334869,67.686737   C157.240952,68.871956 156.394943,70.492638 155.410370,71.027145   C150.982666,73.430840 143.367065,72.239693 139.534897,68.673424   C134.908447,64.367966 133.900269,58.997311 135.733505,53.151073   C137.504410,47.503613 141.617966,43.925781 147.468857,44.088367   C152.177719,44.219219 156.841721,45.963360 161.525635,46.991692   C161.505142,47.462311 161.484665,47.932926 161.464172,48.403542   C163.538773,46.438068 165.613373,44.472599 167.683258,42.511581   C161.306488,35.683327 153.498550,34.207508 145.050934,35.036102   C133.670731,36.152340 125.323112,44.885609 124.356590,56.431870   C123.449638,67.266457 130.271362,77.243637 141.105408,79.944237   C145.198578,80.964531 149.646454,80.561813 154.781647,80.586914  M238.107208,55.963051   C235.718460,63.851254 236.310059,71.155327 242.854828,76.923576   C248.621140,82.005714 255.998474,82.087044 264.302032,77.654480   C266.413330,82.828468 270.629120,79.307983 273.896637,80.390816   C273.896637,64.319672 273.896637,48.672695 273.896637,33.104820   C270.587097,33.104820 267.645020,33.104820 264.204163,33.104820   C264.204163,38.325165 264.204163,43.355949 264.204163,48.619732   C252.962158,42.789017 243.963470,45.237110 238.107208,55.963051  M175.743042,56.506035   C175.786819,60.167721 175.677078,63.838955 175.904175,67.489235   C176.501343,77.088036 184.333527,82.900780 193.624390,80.532379   C196.124985,79.894928 198.419174,78.447899 200.449997,77.533707   C202.652161,82.713425 207.013992,79.360023 210.435455,80.370621   C210.435455,68.693558 210.435455,57.469975 210.435455,46.205334   C207.086243,46.205334 204.010361,46.205334 200.658295,46.205334   C200.658295,50.952835 200.730743,55.434750 200.628418,59.912670   C200.575470,62.230579 200.510208,64.619957 199.924637,66.838219   C198.876770,70.807701 195.861252,72.274712 191.937988,72.050285   C188.128036,71.832352 186.134537,69.534920 186.029922,65.953079   C185.837372,59.360062 185.974960,52.757408 185.974960,46.248608   C182.074539,46.248608 178.990021,46.248608 175.960403,46.248608   C175.861282,46.881645 175.769531,47.201958 175.767426,47.522865   C175.749924,50.186562 175.748978,52.850365 175.743042,56.506035  M361.023193,65.882469   C359.094177,71.605492 359.995941,75.437943 363.956360,78.348396   C369.028961,82.076164 376.391846,81.739098 382.561157,77.497002   C384.677429,82.993820 389.051086,79.295929 392.291077,80.286949   C392.291077,72.295265 392.497925,64.679962 392.212433,57.083168   C392.044800,52.622265 389.554413,49.049030 385.413239,47.345135   C377.092834,43.921665 369.081329,45.028423 361.219269,49.556313   C362.476471,52.039215 363.513306,54.086880 364.534821,56.104309   C376.178009,51.576195 381.831360,52.863468 381.810638,59.890827   C374.762512,60.705463 366.874725,58.351013 361.023193,65.882469  M303.138336,80.808632   C307.095428,79.418045 311.052490,78.027466 315.768494,76.370186   C313.141357,73.469498 311.483765,71.639313 309.856720,69.842827   C301.014771,74.871918 294.058838,73.501892 291.714386,65.943314   C300.236298,65.943314 308.620270,65.943314 316.954346,65.943314   C317.523865,56.275387 314.214600,50.010098 307.270996,47.056702   C300.088348,44.001640 291.034332,45.590706 285.977173,50.794025   C280.782318,56.139034 279.444641,64.326141 282.983368,71.136948   C287.029907,78.925110 294.168365,80.946632 303.138336,80.808632  M355.955597,80.096855   C352.093018,74.252464 348.230408,68.408073 344.284088,62.437027   C348.190948,57.218307 352.199829,51.863316 356.055695,46.712681   C346.313751,42.661049 342.867645,50.022591 338.488770,56.246395   C334.450989,49.077477 330.307312,42.904266 320.808563,46.762066   C324.807953,52.181656 328.803497,57.596012 332.821747,63.041100   C328.555115,68.697762 324.504364,74.068207 320.393341,79.518585   C330.608337,83.746849 333.975281,75.836090 338.563171,69.514069   C342.297852,76.566727 346.143341,82.631622 355.955597,80.096855  M423.668274,55.569809   C427.900970,60.828651 430.131378,54.908119 433.473206,54.319004   C429.615326,46.866077 421.790527,43.897442 412.754791,46.087013   C404.790741,48.016888 399.198700,54.967350 399.119293,63.034859   C399.038147,71.281189 404.609070,78.154869 413.034576,80.204102   C421.995972,82.383675 429.672699,79.381561 433.447632,72.021645   C431.046478,70.716934 428.640869,69.409790 426.235229,68.102646   C426.284363,68.568718 426.333527,69.034798 426.382660,69.500870   C423.416168,70.515823 420.270264,72.661575 417.533752,72.227303   C414.803711,71.794060 410.979279,69.170876 410.354401,66.793053   C409.520172,63.618725 410.330048,59.074009 412.217346,56.356495   C414.664246,52.833202 419.102539,52.904312 423.668274,55.569809  M445.787415,78.926987   C451.039520,81.784416 456.249786,81.441490 461.818146,78.807007   C460.900574,76.399940 460.062103,74.200363 459.248230,72.065231   C452.347046,73.774673 450.941833,72.715408 450.893372,66.209297   C450.865112,62.410851 450.888275,58.612026 450.888275,54.547497   C453.819855,54.386742 456.393951,54.245590 459.076843,54.098473   C459.076843,51.565701 459.076843,49.333538 459.076843,46.618156   C456.258728,46.618156 453.686646,46.618156 450.692139,46.618156   C450.692139,43.546196 450.692139,40.964050 450.692139,38.523064   C447.182983,38.523064 444.119049,38.523064 440.634338,38.523064   C440.634338,41.455963 440.634338,44.046516 440.634338,46.583920   C438.737427,46.740383 437.273315,46.861145 435.680603,46.992519   C435.680603,49.434349 435.680603,51.699276 435.680603,54.087143   C437.484528,54.266644 439.065735,54.423977 440.908081,54.607296   C440.908081,59.734585 440.391968,64.621002 441.087860,69.328255   C441.558960,72.514969 443.734589,75.449699 445.787415,78.926987  M229.949097,75.418114   C229.949097,65.687897 229.949097,55.957687 229.949097,46.206097   C226.356750,46.206097 223.296890,46.206097 220.201447,46.206097   C220.201447,57.665440 220.201447,68.866371 220.201447,80.063553   C223.514267,80.063553 226.570374,80.063553 229.949066,80.063553   C229.949066,78.678642 229.949066,77.538750 229.949097,75.418114  M229.098236,39.694633   C229.415176,39.316486 230.028046,38.915867 230.001297,38.563812   C229.819183,36.165607 230.329346,32.553547 229.032486,31.677483   C227.156509,30.410191 223.567795,30.308935 221.427811,31.284834   C220.008987,31.931868 218.669968,35.968300 219.412781,37.344341   C220.387360,39.149708 223.385040,39.980663 225.646317,40.902935   C226.336441,41.184410 227.467026,40.385910 229.098236,39.694633  z"/>
<path fill="#FBFBFB" opacity="1.000000" stroke="none" d=" M88.531342,1.000000   C89.449112,1.606335 89.811676,2.646298 90.359962,2.755733   C104.947731,5.667315 112.354805,14.101827 112.508049,28.859077   C112.706497,47.968979 112.715462,67.084259 112.505066,86.193909   C112.340721,101.121040 104.760101,109.552711 89.805321,112.276581   C89.271049,112.373886 88.826561,112.964195 88.670113,113.662361   C68.312439,114.000000 47.624878,114.000000 26.801128,113.662964   C26.342678,112.998978 26.052816,112.428040 25.693478,112.380318   C11.968039,110.557800 4.243371,102.869133 2.644942,89.050446   C2.597735,88.642334 1.570369,88.347595 1.000000,88.000000   C1.000000,67.979103 1.000000,47.958210 1.352308,27.770325   C2.002175,27.247036 2.524079,26.914591 2.564866,26.530991   C4.024573,12.802426 11.312718,4.662291 25.183790,2.695366   C25.529053,2.646408 25.731138,1.587745 26.000000,1.000000   C46.687561,1.000000 67.375122,1.000000 88.531342,1.000000  M28.416868,31.063663   C25.131298,35.639866 23.776543,40.689369 23.941790,46.364326   C24.183868,54.677814 23.972029,63.003746 24.012447,71.324089   C24.060680,81.253792 31.726425,90.843674 41.706554,91.844978   C51.905472,92.868233 62.275963,93.269524 72.498421,92.679558   C83.886841,92.022308 92.187332,84.555000 93.734741,74.142166   C94.654480,67.952988 93.718918,61.510590 94.074631,55.207836   C94.349548,50.336765 92.463081,48.419254 87.736412,49.000576   C83.018936,49.580769 81.292267,47.043968 80.970482,42.730759   C80.267250,33.304531 73.779396,25.221718 64.391533,23.133852   C59.463810,22.037924 54.219124,22.221104 49.111538,22.113764   C41.194408,21.947378 34.225807,24.289791 28.416868,31.063663  z"/>
<path fill="#020202" opacity="1.000000" stroke="none" d=" M1.000000,88.468666   C1.570369,88.347595 2.597735,88.642334 2.644942,89.050446   C4.243371,102.869133 11.968039,110.557800 25.693478,112.380318   C26.052816,112.428040 26.342678,112.998978 26.332470,113.662964   C17.738834,114.000000 9.477667,114.000000 1.000000,114.000000   C1.000000,105.647018 1.000000,97.292175 1.000000,88.468666  z"/>
<path fill="#020202" opacity="1.000000" stroke="none" d=" M25.531321,1.000000   C25.731138,1.587745 25.529053,2.646408 25.183790,2.695366   C11.312718,4.662291 4.024573,12.802426 2.564866,26.530991   C2.524079,26.914591 2.002175,27.247036 1.352308,27.301666   C1.000000,18.408392 1.000000,9.816783 1.000000,1.000000   C9.019480,1.000000 17.041061,1.000000 25.531321,1.000000  z"/>
<path fill="#F7F7F7" opacity="1.000000" stroke="none" d=" M154.357147,80.697342   C149.646454,80.561813 145.198578,80.964531 141.105408,79.944237   C130.271362,77.243637 123.449638,67.266457 124.356590,56.431870   C125.323112,44.885609 133.670731,36.152340 145.050934,35.036102   C153.498550,34.207508 161.306488,35.683327 167.683258,42.511581   C165.613373,44.472599 163.538773,46.438068 161.464172,48.403542   C161.484665,47.932926 161.505142,47.462311 161.525635,46.991692   C156.841721,45.963360 152.177719,44.219219 147.468857,44.088367   C141.617966,43.925781 137.504410,47.503613 135.733505,53.151073   C133.900269,58.997311 134.908447,64.367966 139.534897,68.673424   C143.367065,72.239693 150.982666,73.430840 155.410370,71.027145   C156.394943,70.492638 157.240952,68.871956 157.334869,67.686737   C157.595123,64.401520 157.425064,61.082211 157.425064,57.467140   C160.590164,57.467140 163.483673,57.467140 166.989563,57.467140   C166.989563,62.833420 167.202744,68.276764 166.838089,73.681122   C166.748123,75.014534 165.014648,76.701546 163.623520,77.384842   C160.826736,78.758598 157.745499,79.553284 154.357147,80.697342  z"/>
<path fill="#F9F9F9" opacity="1.000000" stroke="none" d=" M238.261780,55.600327   C243.963470,45.237110 252.962158,42.789017 264.204163,48.619732   C264.204163,43.355949 264.204163,38.325165 264.204163,33.104820   C267.645020,33.104820 270.587097,33.104820 273.896637,33.104820   C273.896637,48.672695 273.896637,64.319672 273.896637,80.390816   C270.629120,79.307983 266.413330,82.828468 264.302032,77.654480   C255.998474,82.087044 248.621140,82.005714 242.854828,76.923576   C236.310059,71.155327 235.718460,63.851254 238.261780,55.600327  M264.107178,60.916985   C262.541901,55.471275 259.517273,53.279667 254.420502,53.898113   C249.860992,54.451366 247.054810,57.884567 246.991013,62.987656   C246.924484,68.308907 249.703918,71.782150 254.592957,72.487198   C260.556946,73.347275 264.168823,69.324524 264.107178,60.916985  z"/>
<path fill="#F6F6F6" opacity="1.000000" stroke="none" d=" M175.743042,56.010086   C175.748978,52.850365 175.749924,50.186562 175.767426,47.522865   C175.769531,47.201958 175.861282,46.881645 175.960403,46.248608   C178.990021,46.248608 182.074539,46.248608 185.974960,46.248608   C185.974960,52.757408 185.837372,59.360062 186.029922,65.953079   C186.134537,69.534920 188.128036,71.832352 191.937988,72.050285   C195.861252,72.274712 198.876770,70.807701 199.924637,66.838219   C200.510208,64.619957 200.575470,62.230579 200.628418,59.912670   C200.730743,55.434750 200.658295,50.952835 200.658295,46.205334   C204.010361,46.205334 207.086243,46.205334 210.435455,46.205334   C210.435455,57.469975 210.435455,68.693558 210.435455,80.370621   C207.013992,79.360023 202.652161,82.713425 200.449997,77.533707   C198.419174,78.447899 196.124985,79.894928 193.624390,80.532379   C184.333527,82.900780 176.501343,77.088036 175.904175,67.489235   C175.677078,63.838955 175.786819,60.167721 175.743042,56.010086  z"/>
<path fill="#F6F6F6" opacity="1.000000" stroke="none" d=" M361.208435,65.538300   C366.874725,58.351013 374.762512,60.705463 381.810638,59.890827   C381.831360,52.863468 376.178009,51.576195 364.534821,56.104309   C363.513306,54.086880 362.476471,52.039215 361.219269,49.556313   C369.081329,45.028423 377.092834,43.921665 385.413239,47.345135   C389.554413,49.049030 392.044800,52.622265 392.212433,57.083168   C392.497925,64.679962 392.291077,72.295265 392.291077,80.286949   C389.051086,79.295929 384.677429,82.993820 382.561218,77.496834   C376.391846,81.739098 369.028961,82.076164 363.956360,78.348396   C359.995941,75.437943 359.094177,71.605492 361.208435,65.538300  M370.295471,67.978149   C368.889465,72.226448 371.051117,73.827164 374.893250,74.046432   C380.034271,74.339806 382.631226,71.653374 382.379120,65.454620   C378.490936,66.099205 374.684448,66.730247 370.295471,67.978149  z"/>
<path fill="#F8F8F8" opacity="1.000000" stroke="none" d=" M302.707947,80.839119   C294.168365,80.946632 287.029907,78.925110 282.983368,71.136948   C279.444641,64.326141 280.782318,56.139034 285.977173,50.794025   C291.034332,45.590706 300.088348,44.001640 307.270996,47.056702   C314.214600,50.010098 317.523865,56.275387 316.954346,65.943314   C308.620270,65.943314 300.236298,65.943314 291.714386,65.943314   C294.058838,73.501892 301.014771,74.871918 309.856720,69.842827   C311.483765,71.639313 313.141357,73.469498 315.768494,76.370186   C311.052490,78.027466 307.095428,79.418045 302.707947,80.839119  M301.450897,60.093391   C303.379425,60.093391 305.307953,60.093391 307.771606,60.093391   C306.409210,54.998314 303.468170,52.854305 299.002197,53.070259   C294.812897,53.272835 291.999969,55.396770 291.260132,60.093391   C294.528625,60.093391 297.514343,60.093391 301.450897,60.093391  z"/>
<path fill="#F9F9F9" opacity="1.000000" stroke="none" d=" M355.524170,80.205582   C346.143341,82.631622 342.297852,76.566727 338.563171,69.514069   C333.975281,75.836090 330.608337,83.746849 320.393341,79.518585   C324.504364,74.068207 328.555115,68.697762 332.821747,63.041100   C328.803497,57.596012 324.807953,52.181656 320.808563,46.762066   C330.307312,42.904266 334.450989,49.077477 338.488770,56.246395   C342.867645,50.022591 346.313751,42.661049 356.055695,46.712681   C352.199829,51.863316 348.190948,57.218307 344.284088,62.437027   C348.230408,68.408073 352.093018,74.252464 355.524170,80.205582  z"/>
<path fill="#F6F6F6" opacity="1.000000" stroke="none" d=" M423.357300,55.329975   C419.102539,52.904312 414.664246,52.833202 412.217346,56.356495   C410.330048,59.074009 409.520172,63.618725 410.354401,66.793053   C410.979279,69.170876 414.803711,71.794060 417.533752,72.227303   C420.270264,72.661575 423.416168,70.515823 426.382660,69.500870   C426.333527,69.034798 426.284363,68.568718 426.235229,68.102646   C428.640869,69.409790 431.046478,70.716934 433.447632,72.021645   C429.672699,79.381561 421.995972,82.383675 413.034576,80.204102   C404.609070,78.154869 399.038147,71.281189 399.119293,63.034859   C399.198700,54.967350 404.790741,48.016888 412.754791,46.087013   C421.790527,43.897442 429.615326,46.866077 433.473206,54.319004   C430.131378,54.908119 427.900970,60.828651 423.357300,55.329975  z"/>
<path fill="#F8F8F8" opacity="1.000000" stroke="none" d=" M445.467651,78.712059   C443.734589,75.449699 441.558960,72.514969 441.087860,69.328255   C440.391968,64.621002 440.908081,59.734585 440.908081,54.607296   C439.065735,54.423977 437.484528,54.266644 435.680603,54.087143   C435.680603,51.699276 435.680603,49.434349 435.680603,46.992519   C437.273315,46.861145 438.737427,46.740383 440.634338,46.583920   C440.634338,44.046516 440.634338,41.455963 440.634338,38.523064   C444.119049,38.523064 447.182983,38.523064 450.692139,38.523064   C450.692139,40.964050 450.692139,43.546196 450.692139,46.618156   C453.686646,46.618156 456.258728,46.618156 459.076843,46.618156   C459.076843,49.333538 459.076843,51.565701 459.076843,54.098473   C456.393951,54.245590 453.819855,54.386742 450.888275,54.547497   C450.888275,58.612026 450.865112,62.410851 450.893372,66.209297   C450.941833,72.715408 452.347046,73.774673 459.248230,72.065231   C460.062103,74.200363 460.900574,76.399940 461.818146,78.807007   C456.249786,81.441490 451.039520,81.784416 445.467651,78.712059  z"/>
<path fill="#FDFDFD" opacity="1.000000" stroke="none" d=" M229.949081,75.908493   C229.949066,77.538750 229.949066,78.678642 229.949066,80.063553   C226.570374,80.063553 223.514267,80.063553 220.201447,80.063553   C220.201447,68.866371 220.201447,57.665440 220.201447,46.206097   C223.296890,46.206097 226.356750,46.206097 229.949097,46.206097   C229.949097,55.957687 229.949097,65.687897 229.949081,75.908493  z"/>
<path fill="#F5F5F5" opacity="1.000000" stroke="none" d=" M228.747070,39.888321   C227.467026,40.385910 226.336441,41.184410 225.646317,40.902935   C223.385040,39.980663 220.387360,39.149708 219.412781,37.344341   C218.669968,35.968300 220.008987,31.931868 221.427811,31.284834   C223.567795,30.308935 227.156509,30.410191 229.032486,31.677483   C230.329346,32.553547 229.819183,36.165607 230.001297,38.563812   C230.028046,38.915867 229.415176,39.316486 228.747070,39.888321  z"/>
<path fill="#020202" opacity="1.000000" stroke="none" d=" M28.689121,30.815500   C34.225807,24.289791 41.194408,21.947378 49.111538,22.113764   C54.219124,22.221104 59.463810,22.037924 64.391533,23.133852   C73.779396,25.221718 80.267250,33.304531 80.970482,42.730759   C81.292267,47.043968 83.018936,49.580769 87.736412,49.000576   C92.463081,48.419254 94.349548,50.336765 94.074631,55.207836   C93.718918,61.510590 94.654480,67.952988 93.734741,74.142166   C92.187332,84.555000 83.886841,92.022308 72.498421,92.679558   C62.275963,93.269524 51.905472,92.868233 41.706554,91.844978   C31.726425,90.843674 24.060680,81.253792 24.012447,71.324089   C23.972029,63.003746 24.183868,54.677814 23.941790,46.364326   C23.776543,40.689369 25.131298,35.639866 28.689121,30.815500  M71.901550,66.004868   C63.765156,66.003754 55.627003,66.100121 47.493244,65.953140   C44.277599,65.895035 42.086018,67.133827 42.136475,70.269257   C42.183903,73.216484 44.529930,74.165848 47.392197,74.132362   C55.029388,74.042999 62.677067,74.300354 70.300385,73.963287   C72.190544,73.879715 74.004036,72.062065 75.852768,71.041519   C74.827644,69.379700 73.802513,67.717888 71.901550,66.004868  M59.810043,48.951576   C60.845451,47.158863 62.830410,45.234474 62.606033,43.616459   C62.436485,42.393761 59.524185,40.924625 57.690083,40.692890   C54.114742,40.241158 50.360691,40.141106 46.838696,40.774380   C45.054451,41.095200 43.614521,43.330936 42.018921,44.700928   C43.688084,46.133133 45.202816,48.495743 47.058578,48.803768   C50.917110,49.444225 54.956356,48.995953 59.810043,48.951576  z"/>
<path fill="#070707" opacity="1.000000" stroke="none" d=" M264.164673,61.339821   C264.168823,69.324524 260.556946,73.347275 254.592957,72.487198   C249.703918,71.782150 246.924484,68.308907 246.991013,62.987656   C247.054810,57.884567 249.860992,54.451366 254.420502,53.898113   C259.517273,53.279667 262.541901,55.471275 264.164673,61.339821  z"/>
<path fill="#0A0A0A" opacity="1.000000" stroke="none" d=" M370.586731,67.669716   C374.684448,66.730247 378.490936,66.099205 382.379120,65.454620   C382.631226,71.653374 380.034271,74.339806 374.893250,74.046432   C371.051117,73.827164 368.889465,72.226448 370.586731,67.669716  z"/>
<path fill="#0C0C0C" opacity="1.000000" stroke="none" d=" M300.975464,60.093391   C297.514343,60.093391 294.528625,60.093391 291.260132,60.093391   C291.999969,55.396770 294.812897,53.272835 299.002197,53.070259   C303.468170,52.854305 306.409210,54.998314 307.771606,60.093391   C305.307953,60.093391 303.379425,60.093391 300.975464,60.093391  z"/>
<path fill="#FEFEFE" opacity="1.000000" stroke="none" d=" M72.339462,66.030472   C73.802513,67.717888 74.827644,69.379700 75.852768,71.041519   C74.004036,72.062065 72.190544,73.879715 70.300385,73.963287   C62.677067,74.300354 55.029388,74.042999 47.392197,74.132362   C44.529930,74.165848 42.183903,73.216484 42.136475,70.269257   C42.086018,67.133827 44.277599,65.895035 47.493244,65.953140   C55.627003,66.100121 63.765156,66.003754 72.339462,66.030472  z"/>
<path fill="#FEFEFE" opacity="1.000000" stroke="none" d=" M59.365685,48.973370   C54.956356,48.995953 50.917110,49.444225 47.058578,48.803768   C45.202816,48.495743 43.688084,46.133133 42.018921,44.700928   C43.614521,43.330936 45.054451,41.095200 46.838696,40.774380   C50.360691,40.141106 54.114742,40.241158 57.690083,40.692890   C59.524185,40.924625 62.436485,42.393761 62.606033,43.616459   C62.830410,45.234474 60.845451,47.158863 59.365685,48.973370  z"/>
</svg>
